<svg width="3308" height="697" viewBox="0 0 3308 697" fill="currentColor" xmlns="http://www.w3.org/2000/svg">
<path d="M605.962 596.624C537.65 663.424 453.555 696.446 354.434 696.446C254.557 696.446 170.462 663.424 102.867 596.624C33.7974 529.823 0 447.328 0 348.223C0 249.118 33.7974 166.583 102.11 99.8223C170.462 33.0218 254.557 0 354.394 0C454.312 0 538.407 33.0218 605.962 99.8223C674.314 166.623 708.111 249.197 708.111 348.223C708.111 447.289 674.314 529.863 605.962 596.624ZM554.947 348.223C554.947 288.194 535.418 237.168 497.077 194.387C458.816 151.606 410.75 130.574 354.394 130.574C298.119 130.574 250.77 151.606 211.752 194.387C173.491 237.168 153.962 288.194 153.962 348.223C153.962 408.252 173.491 459.278 211.752 501.303C250.053 543.327 298.119 564.359 354.434 564.359C410.75 564.359 458.058 543.367 497.117 501.342C535.378 460.035 554.947 409.009 554.947 348.223ZM938.595 402.994L1029.47 15.0172H1186.42L1305.07 402.994L1439.46 15.0172H1602.43L1367.4 688.957H1255.49L1107.62 220.637L961.193 688.957H849.319L642.788 15.774H805.717L938.595 402.994ZM2171.56 596.624C2103.21 663.424 2019.12 696.446 1920 696.446C1820.16 696.446 1736.02 663.424 1668.47 596.624C1600.12 529.823 1566.32 447.289 1566.32 348.223C1566.32 249.158 1600.12 166.583 1668.47 99.8223C1736.06 33.0218 1820.2 0 1920.03 0C2019.87 0 2104.01 33.0218 2171.6 99.8223C2239.91 166.623 2273.71 249.197 2273.71 348.223C2273.71 447.289 2239.87 529.863 2171.56 596.624ZM2120.55 348.223C2120.55 288.194 2101.02 237.168 2062.72 194.387C2024.46 151.606 1976.35 130.574 1920.03 130.574C1863.72 130.574 1816.41 151.606 1777.35 194.387C1739.09 237.168 1719.56 288.194 1719.56 348.223C1719.56 408.252 1739.09 459.278 1777.35 501.303C1815.65 543.327 1863.72 564.359 1920.03 564.359C1976.35 564.359 2023.66 543.367 2062.72 501.342C2100.98 460.035 2120.55 409.009 2120.55 348.223ZM2504.2 402.994L2623.68 15.0172H2780.63L2899.24 402.994L3033.68 15.0172H3196.6L2960.82 688.957H2848.95L2700.96 220.637L2554.53 688.957H2442.66L2208.39 15.774H2371.32L2504.2 402.994ZM3095.29 590.41C3095.29 651.434 3142.12 696.645 3201.39 696.645C3261.17 696.645 3307.96 651.434 3307.96 590.41C3307.96 529.345 3261.13 484.134 3201.39 484.134C3142.12 484.134 3095.29 529.345 3095.29 590.41ZM3287 590.41C3287 641.795 3250.45 678.641 3201.39 678.641C3152.8 678.641 3116.26 641.755 3116.26 590.41C3116.26 539.025 3152.8 502.139 3201.39 502.139C3250.41 502.139 3287 539.025 3287 590.41ZM3156.83 531.536V648.367H3186.24V607.06H3197.4C3216.93 607.06 3218.13 624.467 3219 636.855C3219.4 642.273 3219.68 646.734 3221.47 648.367H3251.37V647.053C3249.21 646.336 3248.7 641.357 3248.02 634.704C3246.62 620.564 3244.47 598.934 3224.1 595.668V595.23C3238.85 591.724 3249.09 582.085 3249.09 565.793C3249.09 543.845 3234.39 531.536 3206.29 531.536H3156.83ZM3198.72 583.797H3186.24V553.524H3198.72C3210.31 553.524 3221.04 555.715 3221.04 568.422C3221.04 581.168 3210.31 583.797 3198.72 583.797Z" fill="currentColor"/>
</svg>
